<svg id="svg7885" xmlns="http://www.w3.org/2000/svg" viewBox="0 0 699.9 500">
  <defs>
    <style>
      @keyframes bubble-fade{0%,to{fill-opacity:0;stroke-opacity:0}15%{fill-opacity:.25;stroke-opacity:.5}85%{fill-opacity:1;stroke-opacity:1}}@keyframes bubble1a-movement{0%{transform:translate(577px,403px)}41.56%{transform:translate(444.5px,483px)}to{transform:translate(247px,370.5px)}}@keyframes bubble2a-movement{0%{transform:translate(556px,391px)}17.46%{transform:translate(480px,435px)}78.37%{transform:translate(211.5px,281.5px)}92.46%{transform:translate(149px,317px)}to{transform:translate(115px,298px)}}@keyframes bubble2b-movement{0%{transform:translate(556px,391px)}17.67%{transform:translate(480px,435px)}79.32%{transform:translate(211.5px,281.5px)}92.57%{transform:translate(267.5px,248.5px)}to{transform:translate(236px,230px)}}@keyframes bubble3a-movement{0%{transform:translate(537px,378px)}19.69%{transform:translate(493px,403px)}65.75%{transform:translate(390px,344.5px)}78.74%{transform:translate(418px,328px)}to{transform:translate(371px,301px)}}@keyframes bubble3b-movement{0%{transform:translate(537px,378px)}12.82%{transform:translate(493px,403px)}42.82%{transform:translate(390px,344.5px)}86.92%{transform:translate(537px,258.5px)}to{transform:translate(492px,233px)}}@keyframes bubble3c-movement{0%{transform:translate(537px,378px)}9.43%{transform:translate(493px,403px)}31.51%{transform:translate(390px,344.5px)}77.17%{transform:translate(598.5px,223.5px)}92.82%{transform:translate(525px,182px)}to{transform:translate(558px,163px)}}@keyframes bubble3d-movement{0%{transform:translate(537px,378px)}7.4%{transform:translate(493px,403px)}24.7%{transform:translate(390px,344.5px)}60.5%{transform:translate(598.5px,223.5px)}84.62%{transform:translate(453.5px,142px)}94.82%{transform:translate(394px,176.5px)}to{transform:translate(363px,159px)}}@keyframes bubble3e-movement{0%{transform:translate(537px,378px)}7.37%{transform:translate(493px,403px)}24.63%{transform:translate(390px,344.5px)}60.32%{transform:translate(598.5px,223.5px)}94.69%{transform:translate(394px,107px)}to{transform:translate(424px,89px)}}.cls-1,.cls-4{fill:none}.cls-2{fill:#249646;fill-opacity:0;stroke:#40b149;stroke-opacity:0;stroke-width:1.5px}.cls-4{stroke:#239645;stroke-width:3px}.cls-4,.cls-6{stroke-miterlimit:10}.cls-5,.cls-8{fill:#40b149}.cls-5{opacity:.5;isolation:isolate}.cls-6{fill:#19592a;stroke:#19592a;stroke-width:.93px}.cls-9{fill:#1a1b1c}.bubble{fill:#249646;fill-opacity:0;stroke:#40b149;stroke-width:1.5px;stroke-opacity:0}
    </style>
  </defs>
  <path class="cls-1" d="M400.2 282.7h299.7v217.23H400.2z"/>
  <circle class="cls-2 bubble" cx="6.8" cy="6.8" r="6" id="circle7095" style="animation:bubble1a-movement 2.83s linear infinite,bubble-fade 2.83s linear infinite;animation-delay:1.5s"/>
  <circle class="cls-2 bubble" cx="6.8" cy="6.8" r="6" id="circle9082" style="animation:bubble2a-movement 3.77s linear infinite,bubble-fade 3.77s linear infinite;animation-delay:.75s"/>
  <circle class="cls-2 bubble" cx="6.8" cy="6.8" r="6" id="circle5019" style="animation:bubble2b-movement 3.68s linear infinite,bubble-fade 3.68s linear infinite;animation-delay:2s"/>
  <circle class="cls-2 bubble" cx="6.8" cy="6.8" r="6" id="circle9692" style="animation:bubble3a-movement 1.88s linear infinite,bubble-fade 1.88s linear infinite;animation-delay:.75s"/>
  <circle class="cls-2 bubble" cx="6.8" cy="6.8" r="6" id="circle1110" style="animation:bubble3b-movement 2.88s linear infinite,bubble-fade 2.88s linear infinite;animation-delay:1.25s"/>
  <circle class="cls-2 bubble" cx="6.8" cy="6.8" r="6" id="circle2676" style="animation:bubble3c-movement 3.91s linear infinite,bubble-fade 3.91s linear infinite;animation-delay:2s"/>
  <circle class="cls-2 bubble" cx="6.8" cy="6.8" r="6" id="circle8666" style="animation:bubble3d-movement 5s linear infinite,bubble-fade 5s linear infinite;animation-delay:3.5s"/>
  <circle class="cls-2 bubble" cx="6.8" cy="6.8" r="6" id="circle200" style="animation:bubble3e-movement 5s linear infinite,bubble-fade 5s linear infinite;animation-delay:0s"/>
  <path id="path4839" class="cls-1" d="M0 0" transform="translate(6.8 6.8)"/>
  <g id="g1609" opacity=".3">
    <path id="polyline624" class="cls-4" d="M252.5 376.6l199 113.4 137.9-83.6"/>
    <path id="line426" class="cls-4" d="M375.6 306.5l49.6 28.1"/>
    <path id="polyline3248" class="cls-4" d="M565.5 396.2L486.9 442 217.5 288.3"/>
    <path id="line5029" class="cls-4" d="M531.5 188.9l50.4-29.2"/>
    <path id="polyline3212" class="cls-4" d="M544.7 384.3l-44.8 25.9-103.6-59 209.3-120.6L400 114l38.7-22.5"/>
    <path id="polyline8446" class="cls-4" d="M120.7 304.4l34.9 19.9 118.8-69.2-32.5-18.4"/>
    <path id="polyline5061" class="cls-4" d="M368.2 165.1l32.5 18.6 60.6-34.9"/>
    <path id="line6478" class="cls-4" d="M497.4 238.8l47.4 26.8"/>
  </g>
  <path id="polygon9285" class="cls-5" d="M151.8 220.1l62 35.4 61.6-35.7-62-36.5-61.6 36.8z"/>
  <path id="polygon7164" class="cls-6" d="M151.8 217.5l62 35.4 61.6-35.6-62-36.6-61.6 36.8z"/>
  <path id="polygon192" class="cls-5" d="M283.4 292.4l62.1 35.4 61.5-35.7-62-36.6-61.6 36.9z"/>
  <path id="polygon8905" class="cls-6" d="M283.4 289.8l62.1 35.4 61.5-35.7-62-36.6-61.6 36.9z"/>
  <path id="polygon5663" class="cls-5" d="M524.4 376.1l80.7 46.1 80-46.4-80.6-47.5-80.1 47.8z"/>
  <path id="polygon2886" stroke-width="1.21" fill="#19592a" stroke="#19592a" stroke-miterlimit="10" d="M524.4 372.8l80.7 46.1 80-46.5-80.6-47.5-80.1 47.9z"/>
  <path id="path3067" class="cls-8" d="M630.7 354a1.5 1.5 0 0 1 0-1.8 10.8 10.8 0 0 0 1.1-4.7c-.1-2.9-.1-5.7 0-8.6a9.7 9.7 0 0 0-1.3-5.3 1.1 1.1 0 0 1 0-1.3 9.8 9.8 0 0 0 1.3-5c-.1-3-.1-6 0-8.9a9.9 9.9 0 0 0-1-4.5 1.6 1.6 0 0 1-.2-1.5 4.9 4.9 0 0 0-1-4.9 13.8 13.8 0 0 0-6.1-4.6 50.9 50.9 0 0 0-12.1-3.5 88.3 88.3 0 0 0-29.9 0 51.6 51.6 0 0 0-12.2 3.5 13.8 13.8 0 0 0-6.1 4.6 5.4 5.4 0 0 0-1 4.9 1.6 1.6 0 0 1-.1 1.5 8.7 8.7 0 0 0-1 4.5v8.9a8.9 8.9 0 0 0 1.3 5 1.1 1.1 0 0 1 0 1.3 8.9 8.9 0 0 0-1.3 5.3c.1 2.9.1 5.7 0 8.6a8.6 8.6 0 0 0 1.1 4.7 1.5 1.5 0 0 1 0 1.8 9.2 9.2 0 0 0-1.1 4.3c.1 3.3 0 6.6 0 9.9a5.7 5.7 0 0 0 .3 1.8c1 3.5 3.4 5.8 6.3 7.6a42 42 0 0 0 15.5 5.6 56.1 56.1 0 0 0 12.9.9h.6a54.8 54.8 0 0 0 12.8-.9 41.8 41.8 0 0 0 15.6-5.6c2.9-1.8 5.3-4.1 6.3-7.6a5.7 5.7 0 0 0 .3-1.8v-9.9a9.1 9.1 0 0 0-1-4.3z" transform="translate(6.8 6.8)"/>
  <path id="path3239" class="cls-9" d="M566.8 310.1a8.5 8.5 0 0 1 3.5-3 41.1 41.1 0 0 1 9-2.9 75.8 75.8 0 0 1 9.4-1.3 80.3 80.3 0 0 1 15.5 0 77.4 77.4 0 0 1 9.5 1.3 41.1 41.1 0 0 1 9 2.9 9.2 9.2 0 0 1 3.5 3 1.7 1.7 0 0 1-.1 2 7.5 7.5 0 0 1-3 2.5c-4.4 2.4-9.3 3.3-14.3 4a78.1 78.1 0 0 1-24.6 0c-5-.7-9.9-1.6-14.4-4a9.1 9.1 0 0 1-3-2.5 1.8 1.8 0 0 1 0-2z" transform="translate(6.8 6.8)"/>
  <path id="path1480" class="cls-9" d="M566.4 320.7c5.1 3 10.7 4.4 16.6 5.3a101 101 0 0 0 26.9 0c5.8-.9 11.4-2.3 16.6-5.3.7-.4.8-.2.8.5v6.9a3.9 3.9 0 0 1-.6 1.9c-1.2 2.2-3.3 3.4-5.3 4.6a37.6 37.6 0 0 1-10.2 3.6 50.4 50.4 0 0 1-11.6 1.4h-6.3a50.4 50.4 0 0 1-11.6-1.4 36.4 36.4 0 0 1-10.2-3.6c-2-1.2-4.1-2.4-5.3-4.6a3.1 3.1 0 0 1-.6-1.9v-6.9c0-.7.1-.9.8-.5z" transform="translate(6.8 6.8)"/>
  <path id="path7203" class="cls-9" d="M625.5 371.8c-4 4-9.2 5.4-14.5 6.6a43.1 43.1 0 0 1-6.1 1 59.8 59.8 0 0 1-16.9 0 40.9 40.9 0 0 1-6.1-1c-5.3-1.2-10.5-2.6-14.5-6.6a5.7 5.7 0 0 1-1.9-4.2v-7.1c0-.8.2-1 1-.5a36.9 36.9 0 0 0 12.3 5.5l5.6 1a81.1 81.1 0 0 0 24.1 0l5.6-1a36.9 36.9 0 0 0 12.3-5.5c.8-.6 1-.3 1 .5v7.1a5.7 5.7 0 0 1-1.9 4.2z" transform="translate(6.8 6.8)"/>
  <path id="path585" class="cls-9" d="M626 351.2c-2.4 2.9-5.7 4.4-9.1 5.6a59.3 59.3 0 0 1-8.3 2.1 66.6 66.6 0 0 1-9.9 1.1h-4.5a63.8 63.8 0 0 1-9.9-1.1 59.3 59.3 0 0 1-8.3-2.1c-3.5-1.2-6.7-2.7-9.2-5.6a5.1 5.1 0 0 1-1.3-3.3v-7.4c0-.8.2-1 .9-.5a35.9 35.9 0 0 0 14 5.8c2.3.5 4.6.8 7 1.2a91 91 0 0 0 9.1.4c3-.1 6 0 9.1-.4s4.6-.7 6.9-1.2a35.9 35.9 0 0 0 14-5.8c.8-.5.9-.3.9.5v7.4a4.7 4.7 0 0 1-1.4 3.3z" transform="translate(6.8 6.8)"/>
  <path id="path2460" class="cls-8" d="M364.8 273.7a1.2 1.2 0 0 1 0-1.4 7.7 7.7 0 0 0 .9-3.6c-.1-2.2-.1-4.5 0-6.7a7.9 7.9 0 0 0-1-4 .7.7 0 0 1 0-1 7.6 7.6 0 0 0 1-3.9c-.1-2.3-.1-4.6 0-6.8a6.6 6.6 0 0 0-.8-3.4 1.3 1.3 0 0 1-.1-1.2 4.3 4.3 0 0 0-.7-3.8 12.6 12.6 0 0 0-4.7-3.6 43.7 43.7 0 0 0-9.4-2.6 68.3 68.3 0 0 0-23 0 42.8 42.8 0 0 0-9.3 2.6 11.2 11.2 0 0 0-4.7 3.6 3.7 3.7 0 0 0-.7 3.8 1.7 1.7 0 0 1-.1 1.2 5.7 5.7 0 0 0-.8 3.4v6.8a7.6 7.6 0 0 0 1 3.9.9.9 0 0 1 0 1 7 7 0 0 0-1 4c.1 2.2.1 4.5 0 6.7a7.7 7.7 0 0 0 .9 3.6 1.7 1.7 0 0 1 0 1.4 6.3 6.3 0 0 0-.9 3.3v7.6a6.8 6.8 0 0 0 .2 1.4 10.1 10.1 0 0 0 4.9 5.8 32.7 32.7 0 0 0 12 4.3 36.5 36.5 0 0 0 9.9.7h.4a36.5 36.5 0 0 0 9.9-.7 32 32 0 0 0 12-4.3 10.1 10.1 0 0 0 4.9-5.8 6.8 6.8 0 0 0 .2-1.4V277a7.5 7.5 0 0 0-1-3.3z" transform="translate(6.8 6.8)"/>
  <path id="path9363" class="cls-9" d="M315.6 239.9a6 6 0 0 1 2.8-2.2 28 28 0 0 1 6.9-2.3c2.4-.5 4.8-.8 7.2-1.1a78.8 78.8 0 0 1 11.9 0c2.5.3 4.9.6 7.3 1.1a28 28 0 0 1 6.9 2.3 5.8 5.8 0 0 1 2.7 2.2 1.4 1.4 0 0 1 0 1.5 6 6 0 0 1-2.3 1.9c-3.4 1.9-7.2 2.6-11 3.1a60.5 60.5 0 0 1-19 0c-3.8-.5-7.6-1.2-11-3.1a6 6 0 0 1-2.3-1.9 1.6 1.6 0 0 1-.1-1.5z" transform="translate(6.8 6.8)"/>
  <path id="path5131" class="cls-9" d="M315.4 248.1a35.6 35.6 0 0 0 12.7 4 79.7 79.7 0 0 0 20.7 0 36.1 36.1 0 0 0 12.8-4c.5-.4.6-.2.6.4v5.2a2.5 2.5 0 0 1-.5 1.5 9 9 0 0 1-4 3.5 25.8 25.8 0 0 1-7.9 2.8 38 38 0 0 1-8.9 1.1h-4.8a38 38 0 0 1-8.9-1.1 24.9 24.9 0 0 1-7.9-2.8 8.7 8.7 0 0 1-4.1-3.5 3.3 3.3 0 0 1-.5-1.5v-5.2c0-.6.1-.8.7-.4z" transform="translate(6.8 6.8)"/>
  <path id="path8952" class="cls-9" d="M360.8 287.3c-3.1 3.1-7.1 4.2-11.1 5.1a38.5 38.5 0 0 1-4.7.8 47.2 47.2 0 0 1-13 0 35.5 35.5 0 0 1-4.7-.8c-4.1-1-8.1-2-11.2-5.1a4.2 4.2 0 0 1-1.4-3.2v-5.4c0-.7.2-.8.8-.4a26.6 26.6 0 0 0 9.4 4.2l4.3.8a63.7 63.7 0 0 0 18.5 0l4.4-.8a28.3 28.3 0 0 0 9.4-4.2c.6-.4.7-.3.7.4v5.4a4.2 4.2 0 0 1-1.4 3.2z" transform="translate(6.8 6.8)"/>
  <path id="path2823" class="cls-9" d="M361.2 271.5a15.3 15.3 0 0 1-7 4.3 34.2 34.2 0 0 1-6.3 1.6 49.2 49.2 0 0 1-7.6.9h-3.5a47.8 47.8 0 0 1-7.6-.9 35.3 35.3 0 0 1-6.4-1.6 15.9 15.9 0 0 1-7-4.3 3.9 3.9 0 0 1-1-2.5v-5.7c0-.6.1-.8.7-.4a29.8 29.8 0 0 0 10.7 4.5 50.2 50.2 0 0 0 5.4.8 53.7 53.7 0 0 0 7 .4 55.8 55.8 0 0 0 7-.4 45.1 45.1 0 0 0 5.3-.8 29 29 0 0 0 10.7-4.5c.6-.4.7-.2.7.4v5.7a3.6 3.6 0 0 1-1.1 2.5z" transform="translate(6.8 6.8)"/>
  <path id="path651" class="cls-8" d="M233.1 200.4a1.7 1.7 0 0 1 0-1.4 5.7 5.7 0 0 0 .9-3.6q-.1-3.3 0-6.6a7.4 7.4 0 0 0-1-4.1.9.9 0 0 1 0-1 6.4 6.4 0 0 0 1-3.8V173a6.5 6.5 0 0 0-.7-3.4 1.1 1.1 0 0 1-.1-1.2 4.1 4.1 0 0 0-.8-3.8 10.5 10.5 0 0 0-4.6-3.5 40.2 40.2 0 0 0-9.4-2.7 68.3 68.3 0 0 0-23 0 38.8 38.8 0 0 0-9.4 2.7 10.5 10.5 0 0 0-4.6 3.5 4.1 4.1 0 0 0-.8 3.8 1.3 1.3 0 0 1-.1 1.2 6.5 6.5 0 0 0-.7 3.4v6.9a6.4 6.4 0 0 0 1 3.8.9.9 0 0 1 0 1 6.6 6.6 0 0 0-1 4.1v6.6a6.4 6.4 0 0 0 .8 3.6 1.2 1.2 0 0 1 0 1.4 7.3 7.3 0 0 0-.8 3.3v7.6a5.9 5.9 0 0 0 .2 1.4 10.4 10.4 0 0 0 4.8 5.9 34.6 34.6 0 0 0 12 4.3 41.2 41.2 0 0 0 9.9.6h.5a41.2 41.2 0 0 0 9.9-.6 34.6 34.6 0 0 0 12-4.3 10.4 10.4 0 0 0 4.8-5.9 3.2 3.2 0 0 0 .2-1.4v-7.6a5.6 5.6 0 0 0-1-3.3z" transform="translate(6.8 6.8)"/>
  <path id="path1194" class="cls-9" d="M184 166.7a6.7 6.7 0 0 1 2.7-2.3 27.8 27.8 0 0 1 6.9-2.2 58.4 58.4 0 0 1 7.3-1.1 63.3 63.3 0 0 1 19.1 1.1 27.8 27.8 0 0 1 6.9 2.2 7 7 0 0 1 2.8 2.3 1.2 1.2 0 0 1 0 1.4 6.3 6.3 0 0 1-2.3 2 35.4 35.4 0 0 1-11 3.1 64.8 64.8 0 0 1-19 0c-3.8-.6-7.6-1.3-11-3.1a6.3 6.3 0 0 1-2.3-2 1.2 1.2 0 0 1-.1-1.4z" transform="translate(6.8 6.8)"/>
  <path id="path6849" class="cls-9" d="M183.8 174.8a33.3 33.3 0 0 0 12.7 4.1 79.7 79.7 0 0 0 20.7 0 33.3 33.3 0 0 0 12.7-4.1c.6-.3.7-.1.7.4v5.3a3 3 0 0 1-.5 1.5 10 10 0 0 1-4.1 3.5 26.7 26.7 0 0 1-7.8 2.7 46.3 46.3 0 0 1-9 1.2h-4.8a44.3 44.3 0 0 1-8.9-1.2 26.7 26.7 0 0 1-7.8-2.7 10 10 0 0 1-4.1-3.5 2.7 2.7 0 0 1-.5-1.5v-5.3c0-.5.1-.7.7-.4z" transform="translate(6.8 6.8)"/>
  <path id="path6290" class="cls-9" d="M229.2 214.1c-3.1 3-7.1 4.1-11.2 5.1l-4.7.8a47.2 47.2 0 0 1-13 0l-4.6-.8c-4.1-1-8.1-2.1-11.2-5.1a4.3 4.3 0 0 1-1.4-3.2v-5.5c0-.6.1-.8.7-.4a27.9 27.9 0 0 0 9.5 4.2c1.4.4 2.8.6 4.3.9a46.9 46.9 0 0 0 9.2.6 48.5 48.5 0 0 0 9.3-.6c1.5-.3 2.9-.5 4.3-.9a27.9 27.9 0 0 0 9.5-4.2c.6-.4.7-.2.7.4v5.5a4.3 4.3 0 0 1-1.4 3.2z" transform="translate(6.8 6.8)"/>
  <path id="path9607" class="cls-9" d="M229.6 198.2a15.2 15.2 0 0 1-7 4.4 46.1 46.1 0 0 1-6.4 1.6c-2.5.4-5 .7-7.6.9h-3.5l-7.6-.9a48.5 48.5 0 0 1-6.3-1.6 15.2 15.2 0 0 1-7-4.4 3.2 3.2 0 0 1-1-2.5V190c0-.6.1-.8.6-.4a27 27 0 0 0 10.8 4.5 45.1 45.1 0 0 0 5.3.9c2.4.3 4.7.3 7 .4a53.7 53.7 0 0 0 7-.4 50.7 50.7 0 0 0 5.4-.9 26.6 26.6 0 0 0 10.7-4.5c.6-.4.7-.2.7.4v5.7a3.3 3.3 0 0 1-1.1 2.5z" transform="translate(6.8 6.8)"/>
  <path id="polygon6287" class="cls-5" d="M398.6 79.3l62.1 35.5 61.5-35.7-62-36.6-61.6 36.8z"/>
  <path id="polygon6410" class="cls-6" d="M398.6 76.8l62.1 35.4 61.5-35.7-62-36.5-61.6 36.8z"/>
  <path id="polygon3527" class="cls-5" d="M275.2 150.2l62 35.5 61.6-35.7-62-36.6-61.6 36.8z"/>
  <path id="polygon1714" class="cls-6" d="M275.2 147.6l62 35.5 61.6-35.7-62-36.6-61.6 36.8z"/>
  <path id="polygon9600" class="cls-5" d="M406.9 222.5l62 35.4 61.6-35.7-62.1-36.5-61.5 36.8z"/>
  <path id="polygon7971" class="cls-6" d="M406.9 219.9l62 35.4 61.6-35.6-62.1-36.6-61.5 36.8z"/>
  <path id="polygon3945" class="cls-5" d="M531.5 151.5l62 35.4 61.6-35.6-62-36.6-61.6 36.8z"/>
  <path id="polygon2911" class="cls-6" d="M531.5 148.9l62 35.5 61.6-35.7-62-36.6-61.6 36.8z"/>
  <path id="path2282" class="cls-8" d="M611.6 132.9a1.2 1.2 0 0 1 0-1.4 7.4 7.4 0 0 0 .9-3.6q-.2-3.3 0-6.6a7.6 7.6 0 0 0-1-4.1.9.9 0 0 1 0-1 7.2 7.2 0 0 0 1-3.8v-6.9a6.8 6.8 0 0 0-.8-3.4 1.6 1.6 0 0 1-.1-1.2 3.8 3.8 0 0 0-.7-3.8 11 11 0 0 0-4.7-3.5 38.1 38.1 0 0 0-9.3-2.7 68.3 68.3 0 0 0-23 0 37.6 37.6 0 0 0-9.4 2.7 11.6 11.6 0 0 0-4.7 3.5 4 4 0 0 0-.7 3.8 1.6 1.6 0 0 1-.1 1.2 6.8 6.8 0 0 0-.8 3.4q.1 3.4 0 6.9a7.2 7.2 0 0 0 1 3.8.7.7 0 0 1 0 1 8.6 8.6 0 0 0-1 4.1q.1 3.3 0 6.6a7.4 7.4 0 0 0 .9 3.6 1.2 1.2 0 0 1 0 1.4 6.4 6.4 0 0 0-.8 3.3v7.6a3.2 3.2 0 0 0 .2 1.4 10.4 10.4 0 0 0 4.8 5.9 34.6 34.6 0 0 0 12 4.3 47.2 47.2 0 0 0 9.9.7h.5a47.2 47.2 0 0 0 9.9-.7 34.6 34.6 0 0 0 12-4.3 10.4 10.4 0 0 0 4.8-5.9 5.9 5.9 0 0 0 .2-1.4v-7.6a6.4 6.4 0 0 0-1-3.3z" transform="translate(6.8 6.8)"/>
  <path id="path8409" class="cls-9" d="M562.5 99.2a6.7 6.7 0 0 1 2.7-2.3 27.8 27.8 0 0 1 6.9-2.2 63.7 63.7 0 0 1 26.4 0 27.8 27.8 0 0 1 6.9 2.2 6.1 6.1 0 0 1 2.7 2.3 1.4 1.4 0 0 1 0 1.5 5.9 5.9 0 0 1-2.2 1.9 31.3 31.3 0 0 1-11 3.1 60.5 60.5 0 0 1-19 0c-3.8-.5-7.6-1.2-11-3.1a6.2 6.2 0 0 1-2.3-1.9 1.2 1.2 0 0 1-.1-1.5z" transform="translate(6.8 6.8)"/>
  <path id="path6441" class="cls-9" d="M562.2 107.3a34.3 34.3 0 0 0 12.8 4.1 79.7 79.7 0 0 0 20.7 0 33.3 33.3 0 0 0 12.7-4.1c.6-.3.7-.1.7.4v5.3a3 3 0 0 1-.5 1.5 10 10 0 0 1-4.1 3.5 27.6 27.6 0 0 1-7.9 2.8 44.2 44.2 0 0 1-8.9 1.1h-4.8a44.2 44.2 0 0 1-8.9-1.1 28.7 28.7 0 0 1-7.9-2.8 10.4 10.4 0 0 1-4-3.5 3 3 0 0 1-.5-1.5v-5.3c0-.5.1-.7.6-.4z" transform="translate(6.8 6.8)"/>
  <path id="path8980" class="cls-9" d="M607.7 146.6c-3.1 3-7.2 4.1-11.2 5.1l-4.7.8a47.2 47.2 0 0 1-13 0l-4.7-.8c-4-1-8-2.1-11.1-5.1a4 4 0 0 1-1.4-3.2v-5.5c0-.6.1-.8.7-.3a28.3 28.3 0 0 0 9.4 4.1c1.4.4 2.9.6 4.3.9a72.4 72.4 0 0 0 18.6 0c1.4-.3 2.9-.5 4.3-.9a28.3 28.3 0 0 0 9.4-4.1c.6-.5.8-.3.8.3v5.5a4.3 4.3 0 0 1-1.4 3.2z" transform="translate(6.8 6.8)"/>
  <path id="path8295" class="cls-9" d="M608.1 130.7a15.2 15.2 0 0 1-7 4.4 46.1 46.1 0 0 1-6.4 1.6c-2.5.4-5 .7-7.6.9h-3.5c-2.5-.2-5.1-.5-7.6-.9a44.7 44.7 0 0 1-6.3-1.6 14.7 14.7 0 0 1-7-4.4 3.2 3.2 0 0 1-1-2.5v-5.7c0-.6.1-.8.6-.4a26.6 26.6 0 0 0 10.7 4.5 48.9 48.9 0 0 0 5.3.9c2.4.3 4.7.3 7 .4a53.7 53.7 0 0 0 7-.4 50.7 50.7 0 0 0 5.4-.9 27.9 27.9 0 0 0 10.7-4.4c.6-.5.7-.3.7.3v5.7a3.6 3.6 0 0 1-1 2.5z" transform="translate(6.8 6.8)"/>
  <path id="path1120" class="cls-8" d="M488.2 203.8a1.2 1.2 0 0 1 0-1.4 7.4 7.4 0 0 0 .9-3.6q-.2-3.3 0-6.6a7.2 7.2 0 0 0-1-4.1.9.9 0 0 1 0-1 7.5 7.5 0 0 0 1-3.8q-.2-3.5 0-6.9a6.6 6.6 0 0 0-.8-3.4 1.7 1.7 0 0 1-.1-1.2 4 4 0 0 0-.7-3.8 11.2 11.2 0 0 0-4.7-3.6 42.2 42.2 0 0 0-9.4-2.6 68.3 68.3 0 0 0-23 0 42.8 42.8 0 0 0-9.3 2.6 11.2 11.2 0 0 0-4.7 3.6 4 4 0 0 0-.7 3.8 1.7 1.7 0 0 1-.1 1.2 6.6 6.6 0 0 0-.8 3.4q.1 3.4 0 6.9a7.5 7.5 0 0 0 1 3.8.9.9 0 0 1 0 1 7.2 7.2 0 0 0-1 4.1q.1 3.3 0 6.6a7.4 7.4 0 0 0 .9 3.6 1.2 1.2 0 0 1 0 1.4 5.4 5.4 0 0 0-.8 3.3v7.6a6.1 6.1 0 0 0 .1 1.4 11 11 0 0 0 4.9 5.9 32.5 32.5 0 0 0 12 4.2 36.7 36.7 0 0 0 9.9.7h.4a36.2 36.2 0 0 0 9.9-.7A31.4 31.4 0 0 0 484 222a10.8 10.8 0 0 0 4.9-5.8 3.4 3.4 0 0 0 .1-1.4v-7.7a5.6 5.6 0 0 0-.8-3.3z" transform="translate(6.8 6.8)"/>
  <path id="path5419" class="cls-9" d="M439.1 170.1a5.1 5.1 0 0 1 2.7-2.3 28 28 0 0 1 6.9-2.3c2.4-.4 4.8-.8 7.2-1a60.1 60.1 0 0 1 12 0c2.4.2 4.8.6 7.2 1a28 28 0 0 1 6.9 2.3 5.1 5.1 0 0 1 2.7 2.3 1.2 1.2 0 0 1 0 1.4 5.4 5.4 0 0 1-2.3 1.9c-3.4 1.9-7.2 2.6-11 3.2a67.2 67.2 0 0 1-19 0c-3.8-.6-7.6-1.3-11-3.2a5.1 5.1 0 0 1-2.2-1.9 1.1 1.1 0 0 1-.1-1.4z" transform="translate(6.8 6.8)"/>
  <path id="path6560" class="cls-9" d="M438.8 178.2a36.2 36.2 0 0 0 12.7 4 80.5 80.5 0 0 0 20.8 0 35.6 35.6 0 0 0 12.7-4c.6-.3.7-.2.7.4v5.3a4.7 4.7 0 0 1-.6 1.5 9.1 9.1 0 0 1-4 3.5 27.4 27.4 0 0 1-7.9 2.7 38 38 0 0 1-8.9 1.1h-4.8a38 38 0 0 1-8.9-1.1 27.4 27.4 0 0 1-7.9-2.7 10.4 10.4 0 0 1-4-3.5 3 3 0 0 1-.5-1.5v-5.3c-.1-.6 0-.7.6-.4z" transform="translate(6.8 6.8)"/>
  <path id="path8128" class="cls-9" d="M484.2 217.5c-3.1 3-7.1 4.1-11.1 5.1a38.1 38.1 0 0 1-4.7.7 40.5 40.5 0 0 1-13 0 38.1 38.1 0 0 1-4.7-.7c-4-1-8.1-2.1-11.2-5.1a4.5 4.5 0 0 1-1.4-3.2v-5.5c0-.6.2-.8.8-.4a26.6 26.6 0 0 0 9.4 4.2 32.5 32.5 0 0 0 4.3.8 64.4 64.4 0 0 0 18.6 0 32.5 32.5 0 0 0 4.3-.8 26.6 26.6 0 0 0 9.4-4.2c.6-.4.8-.2.8.4v5.5a4.2 4.2 0 0 1-1.5 3.2z" transform="translate(6.8 6.8)"/>
  <path id="path4440" class="cls-9" d="M484.7 201.6a14.3 14.3 0 0 1-7 4.3 46.4 46.4 0 0 1-6.4 1.7 65.3 65.3 0 0 1-7.6.8h-3.5a65.3 65.3 0 0 1-7.6-.8 46.4 46.4 0 0 1-6.4-1.7 14.3 14.3 0 0 1-7-4.3 3.9 3.9 0 0 1-1-2.5v-5.7c0-.6.1-.8.7-.4a28.1 28.1 0 0 0 10.7 4.5c1.8.4 3.6.6 5.4.9s4.7.2 7 .3c2.3-.1 4.7 0 7-.3s3.6-.5 5.3-.9A27.5 27.5 0 0 0 485 193c.6-.4.7-.2.7.4v5.7a3.9 3.9 0 0 1-1 2.5z" transform="translate(6.8 6.8)"/>
  <path id="path3948" class="cls-8" d="M480 59.7a1.2 1.2 0 0 1 0-1.4 7.7 7.7 0 0 0 .9-3.6c-.1-2.2-.1-4.5 0-6.7a7.9 7.9 0 0 0-1-4 .7.7 0 0 1 0-1 7.6 7.6 0 0 0 1-3.9c-.1-2.3-.1-4.5 0-6.8a6.6 6.6 0 0 0-.8-3.4 1.7 1.7 0 0 1-.1-1.2 4 4 0 0 0-.7-3.8 11.9 11.9 0 0 0-4.7-3.6 42.2 42.2 0 0 0-9.4-2.6 68.3 68.3 0 0 0-23 0 42.8 42.8 0 0 0-9.3 2.6 11.2 11.2 0 0 0-4.7 3.6 3.7 3.7 0 0 0-.7 3.8 1.7 1.7 0 0 1-.1 1.2 6.6 6.6 0 0 0-.8 3.4v6.8a7.6 7.6 0 0 0 1 3.9.9.9 0 0 1 0 1 7.2 7.2 0 0 0-1 4.1q.1 3.3 0 6.6a7.7 7.7 0 0 0 .9 3.6 1.2 1.2 0 0 1 0 1.4 6.3 6.3 0 0 0-.9 3.3v7.6a6.8 6.8 0 0 0 .2 1.4 10.4 10.4 0 0 0 4.9 5.8 32.7 32.7 0 0 0 12 4.3 36.7 36.7 0 0 0 9.9.7h.4a36.5 36.5 0 0 0 9.9-.7 32 32 0 0 0 12-4.3 9.4 9.4 0 0 0 4.7-5.8 3.4 3.4 0 0 0 .2-1.4V63a6.2 6.2 0 0 0-.8-3.3z" transform="translate(6.8 6.8)"/>
  <path id="path4919" class="cls-9" d="M430.9 25.9a5.3 5.3 0 0 1 2.7-2.2 28 28 0 0 1 6.9-2.3 69.5 69.5 0 0 1 19.1-1 58.3 58.3 0 0 1 7.3 1 28 28 0 0 1 6.9 2.3 5.8 5.8 0 0 1 2.7 2.2 1.4 1.4 0 0 1 0 1.5 6 6 0 0 1-2.3 1.9c-3.4 1.9-7.2 2.6-11 3.2s-6.3.6-9.5.7-6.3-.3-9.4-.7-7.6-1.3-11-3.2a5.4 5.4 0 0 1-2.3-1.9 1.2 1.2 0 0 1-.1-1.5z" transform="translate(6.8 6.8)"/>
  <path id="path3381" class="cls-9" d="M430.6 34.1a35.6 35.6 0 0 0 12.7 4 72.7 72.7 0 0 0 10.4.7 71.3 71.3 0 0 0 10.3-.7 35 35 0 0 0 12.7-4c.6-.4.7-.2.7.4v5.2a2.5 2.5 0 0 1-.5 1.5 8.7 8.7 0 0 1-4.1 3.5 24.3 24.3 0 0 1-7.8 2.8 38 38 0 0 1-8.9 1.1h-4.8a38 38 0 0 1-8.9-1.1 24.9 24.9 0 0 1-7.9-2.8 8.7 8.7 0 0 1-4.1-3.5 3.3 3.3 0 0 1-.5-1.5v-5.2c0-.6.1-.8.7-.4z" transform="translate(6.8 6.8)"/>
  <path id="path8387" class="cls-9" d="M476 73.3c-3.1 3.1-7.1 4.2-11.2 5.2a35.4 35.4 0 0 1-4.7.7 47.2 47.2 0 0 1-13 0 36.5 36.5 0 0 1-4.6-.7c-4.1-1-8.1-2.1-11.2-5.2a4.2 4.2 0 0 1-1.4-3.2v-5.4c0-.7.1-.8.7-.4a27.9 27.9 0 0 0 9.5 4.2l4.3.8a63.7 63.7 0 0 0 18.5 0l4.3-.8a27.9 27.9 0 0 0 9.5-4.2c.6-.4.7-.3.7.4v5.4a4.2 4.2 0 0 1-1.4 3.2z" transform="translate(6.8 6.8)"/>
  <path id="path4689" class="cls-9" d="M476.5 57.5a16.5 16.5 0 0 1-7 4.3 51.9 51.9 0 0 1-6.5 1.7 65.3 65.3 0 0 1-7.6.8h-3.5a65.3 65.3 0 0 1-7.6-.8 49.1 49.1 0 0 1-6.3-1.7 15.9 15.9 0 0 1-7-4.3 3.9 3.9 0 0 1-1-2.5v-5.7c0-.6.1-.8.7-.4a29.8 29.8 0 0 0 10.7 4.5 50.2 50.2 0 0 0 5.4.8 53.7 53.7 0 0 0 7 .4 55.8 55.8 0 0 0 7-.4 52.4 52.4 0 0 0 5.3-.8 29 29 0 0 0 10.7-4.5c.6-.4.7-.2.7.4V55a3.9 3.9 0 0 1-1 2.5z" transform="translate(6.8 6.8)"/>
  <path id="path8100" class="cls-8" d="M356.6 130.5a1.2 1.2 0 0 1 0-1.4 6.4 6.4 0 0 0 .8-3.6v-6.6a6.8 6.8 0 0 0-1-4.1.9.9 0 0 1 0-1 6.2 6.2 0 0 0 1-3.8v-6.9a6.9 6.9 0 0 0-.7-3.4 1.3 1.3 0 0 1-.1-1.2 4.1 4.1 0 0 0-.8-3.8 12.3 12.3 0 0 0-4.6-3.5 50.6 50.6 0 0 0-9.4-2.7 73.9 73.9 0 0 0-23 0 49.6 49.6 0 0 0-9.3 2.7 11.9 11.9 0 0 0-4.7 3.5 4.1 4.1 0 0 0-.8 3.8 1 1 0 0 1-.1 1.2 6.9 6.9 0 0 0-.7 3.4v6.9a6.2 6.2 0 0 0 1 3.8.9.9 0 0 1 0 1 7.6 7.6 0 0 0-1 4.1v6.6a6.4 6.4 0 0 0 .8 3.6 1.2 1.2 0 0 1 0 1.4 7.6 7.6 0 0 0-.8 3.3v7.7a7.8 7.8 0 0 0 .2 1.4 10.1 10.1 0 0 0 4.9 5.8 32 32 0 0 0 12 4.3 40.9 40.9 0 0 0 9.9.7h.4a41.3 41.3 0 0 0 9.9-.7 32.7 32.7 0 0 0 12-4.3 10.4 10.4 0 0 0 4.9-5.8 3.4 3.4 0 0 0 .1-1.4v-7.7a6.6 6.6 0 0 0-.9-3.3z" transform="translate(6.8 6.8)"/>
  <path id="path8639" class="cls-9" d="M307.4 96.8a6.7 6.7 0 0 1 2.7-2.3 27.8 27.8 0 0 1 6.9-2.2 59.7 59.7 0 0 1 7.2-1.1 80.1 80.1 0 0 1 12 0 59.7 59.7 0 0 1 7.2 1.1 27.8 27.8 0 0 1 6.9 2.2 6.1 6.1 0 0 1 2.7 2.3 1.4 1.4 0 0 1 0 1.5 5.1 5.1 0 0 1-2.2 1.9 31.3 31.3 0 0 1-11 3.1 60.5 60.5 0 0 1-19 0c-3.8-.5-7.6-1.2-11-3.1a5.4 5.4 0 0 1-2.3-1.9 1.4 1.4 0 0 1-.1-1.5z" transform="translate(6.8 6.8)"/>
  <path id="path6549" class="cls-9" d="M307.2 104.9a33.3 33.3 0 0 0 12.7 4.1 79.7 79.7 0 0 0 20.7 0 34.3 34.3 0 0 0 12.8-4.1c.5-.3.6-.1.6.4v5.3a2.7 2.7 0 0 1-.5 1.5 9.3 9.3 0 0 1-4.1 3.5 27 27 0 0 1-7.8 2.8 44.2 44.2 0 0 1-8.9 1.1h-4.8a46.1 46.1 0 0 1-9-1.1 27 27 0 0 1-7.8-2.8 9.3 9.3 0 0 1-4.1-3.5 2.7 2.7 0 0 1-.5-1.5v-5.3c0-.5.1-.7.7-.4z" transform="translate(6.8 6.8)"/>
  <path id="path3596" class="cls-9" d="M352.6 144.2c-3.1 3.1-7.1 4.2-11.2 5.1a36.9 36.9 0 0 1-4.6.8 47.2 47.2 0 0 1-13 0 35.5 35.5 0 0 1-4.7-.8c-4.1-1-8.1-2-11.2-5.1a4.3 4.3 0 0 1-1.4-3.2v-5.4c0-.7.1-.9.7-.4a29.8 29.8 0 0 0 9.5 4.1c1.4.4 2.9.6 4.3.9a71.6 71.6 0 0 0 18.5 0l4.4-.9a30.2 30.2 0 0 0 9.4-4.1c.6-.5.7-.3.7.4v5.4a4.3 4.3 0 0 1-1.4 3.2z" transform="translate(6.8 6.8)"/>
  <path id="path7538" class="cls-9" d="M353 128.4a15.9 15.9 0 0 1-7 4.3 46.1 46.1 0 0 1-6.4 1.6 63.1 63.1 0 0 1-7.6.9h-3.5a65.6 65.6 0 0 1-7.6-.9 44.7 44.7 0 0 1-6.3-1.6 15.9 15.9 0 0 1-7-4.3 3.5 3.5 0 0 1-1-2.6v-5.6c0-.6.1-.9.6-.4a28.4 28.4 0 0 0 10.8 4.4 45.1 45.1 0 0 0 5.3.9 55.8 55.8 0 0 0 7 .4 54.8 54.8 0 0 0 7-.4 50.7 50.7 0 0 0 5.4-.9 27.9 27.9 0 0 0 10.7-4.4c.6-.5.7-.2.7.4v5.6a3.6 3.6 0 0 1-1.1 2.6z" transform="translate(6.8 6.8)"/>
  <path id="polygon9758" class="cls-5" d="M28.4 289.2l62 35.4 61.6-35.7-62-36.6-61.6 36.9z"/>
  <path id="polygon6911" class="cls-6" d="M28.4 286.6l62 35.4 61.6-35.7-62-36.5-61.6 36.8z"/>
  <path id="polygon1343" class="cls-5" d="M160 361.4l62 35.5 61.6-35.7-62-36.6-61.6 36.8z"/>
  <path id="polygon4287" class="cls-6" d="M160 358.9l62 35.4 61.6-35.7-62-36.6-61.6 36.9z"/>
  <path id="path8202" class="cls-8" d="M241.4 342.7a1.2 1.2 0 0 1 0-1.4 6.4 6.4 0 0 0 .8-3.6v-6.6a6.8 6.8 0 0 0-1-4.1.9.9 0 0 1 0-1 6.2 6.2 0 0 0 1-3.8v-6.9a6.9 6.9 0 0 0-.7-3.4 1.3 1.3 0 0 1-.1-1.2 4.1 4.1 0 0 0-.8-3.8 12.3 12.3 0 0 0-4.6-3.5 50.6 50.6 0 0 0-9.4-2.7 73.9 73.9 0 0 0-23 0 52.9 52.9 0 0 0-9.4 2.7 12.3 12.3 0 0 0-4.6 3.5 4.1 4.1 0 0 0-.8 3.8 1 1 0 0 1-.1 1.2 6.9 6.9 0 0 0-.7 3.4v6.9a6.2 6.2 0 0 0 1 3.8.9.9 0 0 1 0 1 7.6 7.6 0 0 0-1 4.1c0 2.2.1 4.4 0 6.6a5.7 5.7 0 0 0 .9 3.6 1.7 1.7 0 0 1 0 1.4 6.6 6.6 0 0 0-.9 3.3v7.7a7.8 7.8 0 0 0 .2 1.4 10.1 10.1 0 0 0 4.9 5.8 32 32 0 0 0 12 4.3 40.9 40.9 0 0 0 9.9.7h.4a41.3 41.3 0 0 0 9.9-.7 32.7 32.7 0 0 0 12-4.3 10.4 10.4 0 0 0 4.9-5.8 3.4 3.4 0 0 0 .1-1.4V346a6.6 6.6 0 0 0-.9-3.3z" transform="translate(6.8 6.8)"/>
  <path id="path5624" class="cls-9" d="M192.2 309a6.7 6.7 0 0 1 2.7-2.3 29.2 29.2 0 0 1 6.9-2.2 61.3 61.3 0 0 1 7.3-1.1 78.8 78.8 0 0 1 11.9 0 58.4 58.4 0 0 1 7.3 1.1 27.8 27.8 0 0 1 6.9 2.2 6.7 6.7 0 0 1 2.7 2.3 1.4 1.4 0 0 1 0 1.5 6 6 0 0 1-2.3 1.9c-3.4 1.9-7.2 2.6-11 3.1a59.9 59.9 0 0 1-9.5.7 60.8 60.8 0 0 1-9.5-.7c-3.8-.5-7.6-1.2-11-3.1a5.1 5.1 0 0 1-2.2-1.9 1.4 1.4 0 0 1-.2-1.5z" transform="translate(6.8 6.8)"/>
  <path id="path5286" class="cls-9" d="M192 317.1a33.8 33.8 0 0 0 12.7 4.1 79.7 79.7 0 0 0 20.7 0 34.3 34.3 0 0 0 12.8-4.1c.5-.3.6-.1.6.4v5.3a2.5 2.5 0 0 1-.5 1.5 9.6 9.6 0 0 1-4 3.5 27.6 27.6 0 0 1-7.9 2.8 44.2 44.2 0 0 1-8.9 1.1h-4.8a44.2 44.2 0 0 1-8.9-1.1 27.6 27.6 0 0 1-7.9-2.8 8.6 8.6 0 0 1-4-3.5 3.4 3.4 0 0 1-.6-1.5v-5.3c0-.5.1-.7.7-.4z" transform="translate(6.8 6.8)"/>
  <path id="path1950" class="cls-9" d="M237.4 356.4c-3.1 3.1-7.1 4.2-11.2 5.1a36.9 36.9 0 0 1-4.6.8 47.2 47.2 0 0 1-13 0 35.5 35.5 0 0 1-4.7-.8c-4.1-1-8.1-2-11.2-5.1a4.3 4.3 0 0 1-1.4-3.2v-5.4c0-.7.1-.8.7-.4a27.9 27.9 0 0 0 9.5 4.2l4.3.8a48.5 48.5 0 0 0 9.3.6 46.9 46.9 0 0 0 9.2-.6l4.4-.8a28.3 28.3 0 0 0 9.4-4.2c.6-.4.7-.3.7.4v5.4a4.3 4.3 0 0 1-1.4 3.2z" transform="translate(6.8 6.8)"/>
  <path id="path5065" class="cls-9" d="M237.8 340.6a15.9 15.9 0 0 1-7 4.3 48.5 48.5 0 0 1-6.3 1.6 50.7 50.7 0 0 1-7.6.9h-3.5a47.8 47.8 0 0 1-7.6-.9 46.1 46.1 0 0 1-6.4-1.6 15.9 15.9 0 0 1-7-4.3 3.9 3.9 0 0 1-1-2.5v-5.7c0-.6.1-.8.7-.4a29.8 29.8 0 0 0 10.7 4.5l5.3.8a55.8 55.8 0 0 0 7 .4 53.7 53.7 0 0 0 7-.4l5.4-.8a29.3 29.3 0 0 0 10.6-4.5c.6-.4.7-.2.7.4v5.7a3.5 3.5 0 0 1-1 2.5z" transform="translate(6.8 6.8)"/>
  <path id="path7711" class="cls-8" d="M109.7 269.5a1.7 1.7 0 0 1 0-1.4 7.4 7.4 0 0 0 .9-3.6q-.1-3.3 0-6.6a7.4 7.4 0 0 0-1-4.1.9.9 0 0 1 0-1 7.5 7.5 0 0 0 1-3.8v-6.9a5.7 5.7 0 0 0-.8-3.4 1.7 1.7 0 0 1-.1-1.2 3.8 3.8 0 0 0-.7-3.8 10.3 10.3 0 0 0-4.7-3.5 38.1 38.1 0 0 0-9.3-2.7 63.8 63.8 0 0 0-11.5-1 63 63 0 0 0-11.5 1 38.8 38.8 0 0 0-9.4 2.7 11.4 11.4 0 0 0-4.7 3.5 4.3 4.3 0 0 0-.7 3.8 1.3 1.3 0 0 1-.1 1.2 6.6 6.6 0 0 0-.8 3.4q.2 3.5 0 6.9a7.5 7.5 0 0 0 1 3.8.7.7 0 0 1 0 1 8.3 8.3 0 0 0-1 4.1q.2 3.3 0 6.6a7.4 7.4 0 0 0 .9 3.6 1.2 1.2 0 0 1 0 1.4 7.3 7.3 0 0 0-.8 3.3v7.6a3.2 3.2 0 0 0 .2 1.4 10.4 10.4 0 0 0 4.8 5.9 34.6 34.6 0 0 0 12 4.3 41.2 41.2 0 0 0 9.9.6h.5a41.2 41.2 0 0 0 9.9-.6 34.6 34.6 0 0 0 12-4.3 10.4 10.4 0 0 0 4.8-5.9 3.2 3.2 0 0 0 .2-1.4v-7.6a6.4 6.4 0 0 0-1-3.3z" transform="translate(6.8 6.8)"/>
  <path id="path9111" class="cls-9" d="M60.6 235.8a6 6 0 0 1 2.7-2.3 28 28 0 0 1 6.9-2.3c2.4-.4 4.8-.8 7.3-1l6-.3 6 .3c2.4.2 4.8.6 7.2 1a28 28 0 0 1 6.9 2.3 5.5 5.5 0 0 1 2.7 2.3 1.2 1.2 0 0 1 0 1.4 4.8 4.8 0 0 1-2.3 1.9c-3.4 1.9-7.2 2.6-11 3.2a74.3 74.3 0 0 1-9.4.7 74.5 74.5 0 0 1-9.5-.7c-3.8-.6-7.6-1.3-11-3.2a5.3 5.3 0 0 1-2.3-1.9 1.1 1.1 0 0 1-.2-1.4z" transform="translate(6.8 6.8)"/>
  <path id="path2461" class="cls-9" d="M60.3 243.9a34.3 34.3 0 0 0 12.8 4.1 76.9 76.9 0 0 0 20.7 0 33.8 33.8 0 0 0 12.7-4.1c.6-.3.7-.1.7.4v5.3a3.8 3.8 0 0 1-.5 1.5 9.3 9.3 0 0 1-4.1 3.5 27.6 27.6 0 0 1-7.9 2.8 44.2 44.2 0 0 1-8.9 1.1H81a44.2 44.2 0 0 1-8.9-1.1 28.7 28.7 0 0 1-7.9-2.8 9.6 9.6 0 0 1-4-3.5 2.7 2.7 0 0 1-.5-1.5v-5.3c0-.6.1-.7.6-.4z" transform="translate(6.8 6.8)"/>
  <path id="path7785" class="cls-9" d="M105.8 283.2c-3.1 3-7.1 4.1-11.2 5.1l-4.7.8c-2.1.2-4.3.4-6.5.4s-4.3-.2-6.5-.4l-4.7-.8c-4-1-8-2.1-11.1-5.1a4.3 4.3 0 0 1-1.4-3.2v-5.5c0-.6.1-.8.7-.4a28.3 28.3 0 0 0 9.4 4.2c1.4.4 2.9.6 4.4.9a46.9 46.9 0 0 0 9.2.6 48.5 48.5 0 0 0 9.3-.6c1.4-.3 2.9-.5 4.3-.9a26.6 26.6 0 0 0 9.4-4.2c.6-.4.8-.2.8.4v5.5a4.3 4.3 0 0 1-1.4 3.2z" transform="translate(6.8 6.8)"/>
  <path id="path5493" class="cls-9" d="M106.2 267.3a14.3 14.3 0 0 1-7 4.3 46.4 46.4 0 0 1-6.4 1.7 63.1 63.1 0 0 1-7.6.8h-3.5a65.3 65.3 0 0 1-7.6-.8 45 45 0 0 1-6.3-1.7 14.3 14.3 0 0 1-7-4.3 3.5 3.5 0 0 1-1-2.5v-5.7c0-.6.1-.8.6-.4a28.5 28.5 0 0 0 10.8 4.5c1.7.4 3.5.6 5.3.9s4.7.2 7 .3c2.3-.1 4.7 0 7-.3s3.6-.5 5.4-.9a28.1 28.1 0 0 0 10.7-4.5c.6-.4.7-.2.7.4v5.7a3.3 3.3 0 0 1-1.1 2.5z" transform="translate(6.8 6.8)"/>
</svg>